<svg width="1024" height="1024" viewBox="0 0 128 128" fill="none" xmlns="http://www.w3.org/2000/svg">
  <!-- Background (will be handled by backgroundColor in app.json, but included for preview) -->
  <rect width="128" height="128" fill="#f2d5ab"/>

  <!-- Film strip - centered with more padding for adaptive icon safe zone -->
  <g transform="translate(32, 32)">
    <!-- Film strip outline -->
    <rect x="4" y="4" width="56" height="56" rx="4" stroke="#4a3f38" stroke-width="3" fill="none"/>

    <!-- Perforation strip backgrounds -->
    <rect x="4" y="4" width="10" height="56" fill="#4a3f38"/>
    <rect x="50" y="4" width="10" height="56" fill="#4a3f38"/>

    <!-- Film perforations left (punch-outs) -->
    <rect x="6" y="10" width="6" height="5" rx="1" fill="#f2d5ab"/>
    <rect x="6" y="20" width="6" height="5" rx="1" fill="#f2d5ab"/>
    <rect x="6" y="30" width="6" height="5" rx="1" fill="#f2d5ab"/>
    <rect x="6" y="40" width="6" height="5" rx="1" fill="#f2d5ab"/>
    <rect x="6" y="50" width="6" height="5" rx="1" fill="#f2d5ab"/>

    <!-- Film perforations right (punch-outs) -->
    <rect x="52" y="10" width="6" height="5" rx="1" fill="#f2d5ab"/>
    <rect x="52" y="20" width="6" height="5" rx="1" fill="#f2d5ab"/>
    <rect x="52" y="30" width="6" height="5" rx="1" fill="#f2d5ab"/>
    <rect x="52" y="40" width="6" height="5" rx="1" fill="#f2d5ab"/>
    <rect x="52" y="50" width="6" height="5" rx="1" fill="#f2d5ab"/>

    <!-- Dividing line between panels -->
    <line x1="14" y1="32" x2="50" y2="32" stroke="#4a3f38" stroke-width="1.5"/>

    <!-- "A" character - top panel -->
    <text x="32" y="25" font-size="20" font-family="Arial, sans-serif" font-weight="bold" fill="#4a3f38" text-anchor="middle">A</text>

    <!-- "文" character - bottom panel -->
    <text x="32" y="53" font-size="18" font-family="Arial, sans-serif" font-weight="bold" fill="#4a3f38" text-anchor="middle">文</text>
  </g>
</svg>
